<svg xmlns="http://www.w3.org/2000/svg" viewBox="0 0 800 480" role="img" aria-label="A/B Test Simulator preview"><defs><linearGradient id="bg" x1="0" y1="0" x2="1" y2="1"><stop offset="0%" stop-color="#0a1530"/><stop offset="100%" stop-color="#22104a"/></linearGradient><linearGradient id="g" x1="0" y1="0" x2="1" y2="0"><stop offset="0%" stop-color="#4f8cff"/><stop offset="100%" stop-color="#8b5cf6"/></linearGradient></defs><rect width="800" height="480" fill="url(#bg)"/><rect x="24" y="24" width="752" height="90" rx="24" fill="rgba(255,255,255,.05)" stroke="rgba(255,255,255,.12)"/><rect x="44" y="44" width="42" height="42" rx="14" fill="url(#g)"/><text x="65" y="70" fill="#fff" font-family="Inter,sans-serif" font-size="16" font-weight="900" text-anchor="middle">AB</text><text x="104" y="58" fill="#93c5fd" font-family="Inter,sans-serif" font-size="10" font-weight="800" letter-spacing="1.4">MARKETING-TECH · GROWTH EXPERIMENT</text><text x="104" y="86" fill="#fff" font-family="Inter,sans-serif" font-size="24" font-weight="900">A/B Test Simulator</text><g transform="translate(24 136)"><rect width="360" height="300" rx="22" fill="rgba(255,255,255,.045)" stroke="rgba(255,255,255,.12)"/><text x="20" y="34" fill="#fff" font-family="Inter,sans-serif" font-size="16" font-weight="800">Input experiment</text><g transform="translate(20 60)"><rect width="150" height="190" rx="16" fill="rgba(79,140,255,.08)" stroke="rgba(79,140,255,.22)"/><text x="16" y="28" fill="#fff" font-family="Inter,sans-serif" font-size="14" font-weight="800">Variant A</text><rect x="16" y="48" width="118" height="42" rx="8" fill="rgba(255,255,255,.06)"/><text x="24" y="73" fill="#9db0d4" font-family="Inter,sans-serif" font-size="10">1200 visitors</text><rect x="16" y="104" width="118" height="42" rx="8" fill="rgba(255,255,255,.06)"/><text x="24" y="129" fill="#9db0d4" font-family="Inter,sans-serif" font-size="10">84 conversions</text><text x="16" y="170" fill="#93c5fd" font-family="Inter,sans-serif" font-size="18" font-weight="900">7.00%</text></g><g transform="translate(190 60)"><rect width="150" height="190" rx="16" fill="rgba(74,222,128,.08)" stroke="rgba(74,222,128,.28)"/><text x="16" y="28" fill="#fff" font-family="Inter,sans-serif" font-size="14" font-weight="800">Variant B</text><rect x="16" y="48" width="118" height="42" rx="8" fill="rgba(255,255,255,.06)"/><text x="24" y="73" fill="#9db0d4" font-family="Inter,sans-serif" font-size="10">1180 visitors</text><rect x="16" y="104" width="118" height="42" rx="8" fill="rgba(255,255,255,.06)"/><text x="24" y="129" fill="#9db0d4" font-family="Inter,sans-serif" font-size="10">112 conversions</text><text x="16" y="170" fill="#4ade80" font-family="Inter,sans-serif" font-size="18" font-weight="900">9.49%</text></g></g><g transform="translate(408 136)"><rect width="368" height="300" rx="22" fill="rgba(255,255,255,.045)" stroke="rgba(255,255,255,.12)"/><text x="20" y="34" fill="#fff" font-family="Inter,sans-serif" font-size="16" font-weight="800">Simulation result</text><rect x="20" y="58" width="328" height="90" rx="18" fill="rgba(74,222,128,.10)" stroke="rgba(74,222,128,.28)"/><text x="38" y="94" fill="#4ade80" font-family="Inter,sans-serif" font-size="28" font-weight="900">Winner: B</text><text x="38" y="122" fill="#9db0d4" font-family="Inter,sans-serif" font-size="12">+35.56% uplift · 89% confidence</text><text x="20" y="182" fill="#9db0d4" font-family="Inter,sans-serif" font-size="11" font-weight="800">Variant A</text><rect x="20" y="192" width="328" height="10" rx="5" fill="rgba(255,255,255,.07)"/><rect x="20" y="192" width="180" height="10" rx="5" fill="#4f8cff"/><text x="20" y="232" fill="#9db0d4" font-family="Inter,sans-serif" font-size="11" font-weight="800">Variant B</text><rect x="20" y="242" width="328" height="10" rx="5" fill="rgba(255,255,255,.07)"/><rect x="20" y="242" width="260" height="10" rx="5" fill="#4ade80"/></g></svg>