<svg xmlns="http://www.w3.org/2000/svg" width="1280" height="800" viewBox="0 0 1280 800" fill="none">
  <defs>
    <linearGradient id="bg" x1="0" y1="0" x2="1280" y2="800" gradientUnits="userSpaceOnUse">
      <stop stop-color="#050d1f"/>
      <stop offset="1" stop-color="#0f1f3d"/>
    </linearGradient>
    <linearGradient id="acc" x1="0" y1="0" x2="1" y2="1">
      <stop stop-color="#4F8CFF"/>
      <stop offset="1" stop-color="#8B5CF6"/>
    </linearGradient>
    <radialGradient id="glow1" cx="0.15" cy="0.2" r="0.5">
      <stop stop-color="#4F8CFF" stop-opacity="0.18"/>
      <stop offset="1" stop-color="#4F8CFF" stop-opacity="0"/>
    </radialGradient>
    <radialGradient id="glow2" cx="0.85" cy="0.8" r="0.45">
      <stop stop-color="#8B5CF6" stop-opacity="0.14"/>
      <stop offset="1" stop-color="#8B5CF6" stop-opacity="0"/>
    </radialGradient>
  </defs>
  <rect width="1280" height="800" fill="url(#bg)"/>
  <rect width="1280" height="800" fill="url(#glow1)"/>
  <rect width="1280" height="800" fill="url(#glow2)"/>

  <!-- Dashboard frame -->
  <rect x="60" y="56" width="1160" height="688" rx="24" fill="#0c1a34" stroke="#1e3460" stroke-opacity="0.6"/>

  <!-- Sidebar -->
  <rect x="80" y="80" width="200" height="640" rx="16" fill="#0a1528"/>
  <rect x="100" y="108" width="160" height="40" rx="12" fill="url(#acc)"/>
  <rect x="100" y="168" width="140" height="14" rx="7" fill="#4F8CFF" fill-opacity="0.45"/>
  <rect x="100" y="196" width="120" height="14" rx="7" fill="#4F8CFF" fill-opacity="0.3"/>
  <rect x="100" y="224" width="130" height="14" rx="7" fill="#4F8CFF" fill-opacity="0.22"/>
  <rect x="100" y="252" width="110" height="14" rx="7" fill="#4F8CFF" fill-opacity="0.16"/>
  <rect x="100" y="280" width="140" height="14" rx="7" fill="#4F8CFF" fill-opacity="0.12"/>
  <rect x="100" y="308" width="100" height="14" rx="7" fill="#4F8CFF" fill-opacity="0.1"/>

  <!-- KPI cards row -->
  <rect x="304" y="80" width="220" height="110" rx="14" fill="#0e1e3c" stroke="#1e3460" stroke-opacity="0.5"/>
  <rect x="540" y="80" width="220" height="110" rx="14" fill="#0e1e3c" stroke="#1e3460" stroke-opacity="0.5"/>
  <rect x="776" y="80" width="220" height="110" rx="14" fill="#0e1e3c" stroke="#1e3460" stroke-opacity="0.5"/>
  <rect x="1012" y="80" width="188" height="110" rx="14" fill="#0e1e3c" stroke="#1e3460" stroke-opacity="0.5"/>

  <!-- KPI values -->
  <text x="328" y="126" fill="#9db0d4" font-size="13" font-family="Inter,sans-serif" font-weight="600">Clienți activi</text>
  <text x="328" y="168" fill="#eef4ff" font-size="32" font-family="Inter,sans-serif" font-weight="800">247</text>
  <text x="564" y="126" fill="#9db0d4" font-size="13" font-family="Inter,sans-serif" font-weight="600">Conversie</text>
  <text x="564" y="168" fill="#22c55e" font-size="32" font-family="Inter,sans-serif" font-weight="800">34.2%</text>
  <text x="800" y="126" fill="#9db0d4" font-size="13" font-family="Inter,sans-serif" font-weight="600">Pipeline</text>
  <text x="800" y="168" fill="#eef4ff" font-size="32" font-family="Inter,sans-serif" font-weight="800">€18.4k</text>
  <text x="1036" y="126" fill="#9db0d4" font-size="13" font-family="Inter,sans-serif" font-weight="600">Bookings</text>
  <text x="1036" y="168" fill="#60a5fa" font-size="32" font-family="Inter,sans-serif" font-weight="800">52</text>

  <!-- Main content area -->
  <rect x="304" y="210" width="450" height="340" rx="14" fill="#0a1528" stroke="#1e3460" stroke-opacity="0.4"/>
  <rect x="770" y="210" width="430" height="340" rx="14" fill="#0a1528" stroke="#1e3460" stroke-opacity="0.4"/>

  <!-- Kanban columns hint -->
  <rect x="324" y="250" width="130" height="280" rx="10" fill="#0e1e3c"/>
  <rect x="464" y="250" width="130" height="280" rx="10" fill="#0e1e3c"/>
  <rect x="604" y="250" width="130" height="280" rx="10" fill="#0e1e3c"/>

  <!-- Kanban column headers -->
  <text x="344" y="274" fill="#f59e0b" font-size="11" font-family="Inter,sans-serif" font-weight="700">LEAD</text>
  <text x="484" y="274" fill="#60a5fa" font-size="11" font-family="Inter,sans-serif" font-weight="700">CONTACTED</text>
  <text x="624" y="274" fill="#22c55e" font-size="11" font-family="Inter,sans-serif" font-weight="700">WON</text>

  <!-- Kanban cards -->
  <rect x="332" y="290" width="114" height="56" rx="8" fill="#132d58" stroke="#2d467a" stroke-opacity="0.5"/>
  <rect x="332" y="356" width="114" height="56" rx="8" fill="#132d58" stroke="#2d467a" stroke-opacity="0.5"/>
  <rect x="332" y="422" width="114" height="56" rx="8" fill="#132d58" stroke="#2d467a" stroke-opacity="0.5"/>
  <rect x="472" y="290" width="114" height="56" rx="8" fill="#132d58" stroke="#2d467a" stroke-opacity="0.5"/>
  <rect x="472" y="356" width="114" height="56" rx="8" fill="#132d58" stroke="#2d467a" stroke-opacity="0.5"/>
  <rect x="612" y="290" width="114" height="56" rx="8" fill="#132d58" stroke="#2d467a" stroke-opacity="0.5"/>

  <!-- Right panel - timeline/detail -->
  <rect x="790" y="250" width="390" height="44" rx="10" fill="#0e1e3c"/>
  <rect x="790" y="306" width="390" height="44" rx="10" fill="#0e1e3c"/>
  <rect x="790" y="362" width="390" height="44" rx="10" fill="#0e1e3c"/>
  <rect x="790" y="418" width="390" height="44" rx="10" fill="#0e1e3c"/>
  <rect x="790" y="474" width="390" height="44" rx="10" fill="#0e1e3c"/>

  <!-- Bottom bar -->
  <rect x="304" y="570" width="896" height="140" rx="14" fill="#0a1528" stroke="#1e3460" stroke-opacity="0.4"/>
  <rect x="324" y="590" width="200" height="14" rx="7" fill="#4F8CFF" fill-opacity="0.3"/>
  <rect x="324" y="616" width="160" height="10" rx="5" fill="#4F8CFF" fill-opacity="0.15"/>
  <rect x="324" y="636" width="140" height="10" rx="5" fill="#4F8CFF" fill-opacity="0.1"/>

  <!-- Center play button -->
  <circle cx="640" cy="400" r="44" fill="#000" fill-opacity="0.5"/>
  <circle cx="640" cy="400" r="44" fill="none" stroke="url(#acc)" stroke-width="2" stroke-opacity="0.6"/>
  <polygon points="628,380 628,420 662,400" fill="#fff" fill-opacity="0.9"/>

  <!-- Badge -->
  <rect x="1100" y="68" width="100" height="30" rx="15" fill="#000" fill-opacity="0.6"/>
  <text x="1122" y="88" fill="#fff" font-size="12" font-family="Inter,sans-serif" font-weight="600">▶ Demo 40s</text>
</svg>
