<svg xmlns="http://www.w3.org/2000/svg" viewBox="0 0 800 480" role="img" aria-label="CampaignPilot preview interface"><defs><linearGradient id="bg" x1="0" y1="0" x2="1" y2="1"><stop offset="0%" stop-color="#0a1530"/><stop offset="100%" stop-color="#1a0f3d"/></linearGradient><linearGradient id="primary" x1="0" y1="0" x2="1" y2="0"><stop offset="0%" stop-color="#4f8cff"/><stop offset="100%" stop-color="#8b5cf6"/></linearGradient></defs><rect width="800" height="480" fill="url(#bg)"/><rect y="0" width="800" height="56" fill="rgba(0,0,0,.3)"/><rect x="20" y="14" width="28" height="28" rx="7" fill="url(#primary)"/><text x="54" y="34" fill="#fff" font-family="Inter,sans-serif" font-size="14" font-weight="800">CampaignPilot</text><text x="170" y="34" fill="#9db0d4" font-family="Inter,sans-serif" font-size="11" font-weight="600">Q2 2026 · Black Friday Push</text><rect x="0" y="56" width="180" height="424" fill="rgba(0,0,0,.2)"/><g font-family="Inter,sans-serif" font-size="12" font-weight="600"><rect x="12" y="76" width="156" height="32" rx="8" fill="rgba(79,140,255,.18)" stroke="rgba(79,140,255,.4)"/><text x="28" y="97" fill="#4f8cff">📊 KPI Overview</text><text x="28" y="135" fill="#9db0d4">🌀 Funnel Builder</text><text x="28" y="167" fill="#9db0d4">💰 Budget Allocation</text><text x="28" y="199" fill="#9db0d4">📅 Content Calendar</text><text x="28" y="231" fill="#9db0d4">📝 Brief Generator</text><text x="28" y="263" fill="#9db0d4">📚 Campaign Library</text></g><text x="200" y="92" fill="#a78bfa" font-family="Inter,sans-serif" font-size="10" font-weight="800" letter-spacing="1.5">KPI OVERVIEW · LIVE</text><text x="200" y="116" fill="#fff" font-family="Inter,sans-serif" font-size="22" font-weight="800">6 metrici cheie · Black Friday Push</text><g transform="translate(200 140)"><rect width="186" height="92" rx="14" fill="rgba(74,222,128,.10)" stroke="rgba(74,222,128,.3)"/><text x="14" y="22" fill="#4ade80" font-family="Inter,sans-serif" font-size="9" font-weight="800">REACH ✓ ON TARGET</text><text x="14" y="56" fill="#fff" font-family="Inter,sans-serif" font-size="26" font-weight="800">128K</text><text x="14" y="76" fill="#9db0d4" font-family="Inter,sans-serif" font-size="10">+18% vs prev</text><g transform="translate(196 0)"><rect width="186" height="92" rx="14" fill="rgba(245,158,11,.10)" stroke="rgba(245,158,11,.3)"/><text x="14" y="22" fill="#fbbf24" font-family="Inter,sans-serif" font-size="9" font-weight="800">CTR ⚠ BELOW TARGET</text><text x="14" y="56" fill="#fff" font-family="Inter,sans-serif" font-size="26" font-weight="800">2.1%</text><text x="14" y="76" fill="#9db0d4" font-family="Inter,sans-serif" font-size="10">target 3.0%</text></g><g transform="translate(0 108)"><rect width="186" height="92" rx="14" fill="rgba(74,222,128,.10)" stroke="rgba(74,222,128,.3)"/><text x="14" y="22" fill="#4ade80" font-family="Inter,sans-serif" font-size="9" font-weight="800">ROAS ✓ STRONG</text><text x="14" y="56" fill="#fff" font-family="Inter,sans-serif" font-size="26" font-weight="800">4.2x</text><text x="14" y="76" fill="#9db0d4" font-family="Inter,sans-serif" font-size="10">target 4.0x</text></g><g transform="translate(196 108)"><rect width="186" height="92" rx="14" fill="rgba(244,63,94,.10)" stroke="rgba(244,63,94,.3)"/><text x="14" y="22" fill="#f87171" font-family="Inter,sans-serif" font-size="9" font-weight="800">CAC ✗ OVER BUDGET</text><text x="14" y="56" fill="#fff" font-family="Inter,sans-serif" font-size="26" font-weight="800">€48</text><text x="14" y="76" fill="#9db0d4" font-family="Inter,sans-serif" font-size="10">target €35</text></g></g><g transform="translate(602 140)"><text x="0" y="-6" fill="#9db0d4" font-family="Inter,sans-serif" font-size="9" font-weight="800">BUDGET · €12K</text><circle cx="60" cy="80" r="56" fill="rgba(255,255,255,.05)"/><path d="M60 24 A56 56 0 0 1 105 110 L60 80Z" fill="#4f8cff"/><path d="M105 110 A56 56 0 0 1 30 124 L60 80Z" fill="#8b5cf6"/><path d="M30 124 A56 56 0 0 1 15 110 L60 80Z" fill="#a78bfa"/><path d="M15 110 A56 56 0 0 1 60 24 L60 80Z" fill="#4ade80"/><circle cx="60" cy="80" r="28" fill="#0a1530"/><text x="60" y="76" fill="#fff" font-family="Inter,sans-serif" font-size="14" font-weight="800" text-anchor="middle">€12K</text><text x="60" y="92" fill="#9db0d4" font-family="Inter,sans-serif" font-size="8" text-anchor="middle">100%</text></g><g transform="translate(200 366)"><rect width="382" height="44" rx="10" fill="rgba(79,140,255,.06)" stroke="rgba(79,140,255,.2)" stroke-dasharray="4 4"/><text x="14" y="20" fill="#4f8cff" font-family="Inter,sans-serif" font-size="9" font-weight="800">AI SUGGESTION</text><text x="14" y="36" fill="#9db0d4" font-family="Inter,sans-serif" font-size="11">CTR sub target. Consideră A/B test pe headline + creative.</text></g></svg>