<svg width="800" height="450" viewBox="0 0 800 450" fill="none" xmlns="http://www.w3.org/2000/svg"><defs><linearGradient id="bg" x1="80" y1="40" x2="720" y2="410" gradientUnits="userSpaceOnUse"><stop stop-color="#0D1B34"/><stop offset="1" stop-color="#071226"/></linearGradient><linearGradient id="accent" x1="180" y1="110" x2="610" y2="330" gradientUnits="userSpaceOnUse"><stop stop-color="#4F8CFF"/><stop offset="1" stop-color="#8B5CF6"/></linearGradient><filter id="blur1" x="40" y="20" width="220" height="220" filterUnits="userSpaceOnUse"><feGaussianBlur stdDeviation="30"/></filter><filter id="blur2" x="560" y="240" width="180" height="180" filterUnits="userSpaceOnUse"><feGaussianBlur stdDeviation="28"/></filter></defs><rect width="800" height="450" rx="28" fill="url(#bg)"/><circle cx="150" cy="120" r="55" fill="#4F8CFF" fill-opacity="0.22" filter="url(#blur1)"/><circle cx="650" cy="320" r="44" fill="#8B5CF6" fill-opacity="0.20" filter="url(#blur2)"/><rect x="92" y="72" width="616" height="306" rx="24" fill="white" fill-opacity="0.05" stroke="white" stroke-opacity="0.10"/><rect x="116" y="96" width="568" height="258" rx="20" fill="#0B1730" stroke="white" stroke-opacity="0.08"/><rect x="116" y="96" width="132" height="258" rx="20" fill="#0A1428"/><rect x="138" y="122" width="74" height="12" rx="6" fill="url(#accent)"/><circle cx="152" cy="167" r="6" fill="#4F8CFF"/><rect x="166" y="161" width="48" height="10" rx="5" fill="#E7F0FF" fill-opacity="0.94"/><circle cx="152" cy="197" r="6" fill="#7C8FB5"/><rect x="166" y="191" width="58" height="10" rx="5" fill="#8FA5CA" fill-opacity="0.8"/><circle cx="152" cy="227" r="6" fill="#7C8FB5"/><rect x="166" y="221" width="44" height="10" rx="5" fill="#8FA5CA" fill-opacity="0.8"/><circle cx="152" cy="257" r="6" fill="#7C8FB5"/><rect x="166" y="251" width="52" height="10" rx="5" fill="#8FA5CA" fill-opacity="0.8"/><rect x="136" y="302" width="92" height="32" rx="16" fill="url(#accent)"/><rect x="159" y="313" width="46" height="10" rx="5" fill="white" fill-opacity="0.96"/><rect x="274" y="122" width="170" height="18" rx="9" fill="#F4F8FF"/><rect x="274" y="150" width="286" height="10" rx="5" fill="#94A9CD" fill-opacity="0.78"/><rect x="274" y="186" width="118" height="74" rx="18" fill="white" fill-opacity="0.05" stroke="white" stroke-opacity="0.08"/><rect x="408" y="186" width="118" height="74" rx="18" fill="white" fill-opacity="0.05" stroke="white" stroke-opacity="0.08"/><rect x="542" y="186" width="118" height="74" rx="18" fill="white" fill-opacity="0.05" stroke="white" stroke-opacity="0.08"/><rect x="292" y="202" width="44" height="9" rx="4.5" fill="#9AB0D3"/><rect x="292" y="223" width="56" height="18" rx="9" fill="#F4F8FF"/><rect x="426" y="202" width="48" height="9" rx="4.5" fill="#9AB0D3"/><rect x="426" y="223" width="62" height="18" rx="9" fill="#F4F8FF"/><rect x="560" y="202" width="39" height="9" rx="4.5" fill="#9AB0D3"/><rect x="560" y="223" width="54" height="18" rx="9" fill="#F4F8FF"/><rect x="274" y="280" width="246" height="52" rx="18" fill="white" fill-opacity="0.05" stroke="white" stroke-opacity="0.08"/><rect x="536" y="280" width="124" height="52" rx="18" fill="white" fill-opacity="0.05" stroke="white" stroke-opacity="0.08"/><rect x="292" y="297" width="84" height="9" rx="4.5" fill="#9AB0D3"/><rect x="292" y="314" width="168" height="8" rx="4" fill="#EAF2FF" fill-opacity="0.9"/><rect x="554" y="297" width="50" height="9" rx="4.5" fill="#9AB0D3"/><rect x="554" y="314" width="72" height="8" rx="4" fill="url(#accent)"/><rect x="560" y="118" width="100" height="30" rx="15" fill="url(#accent)" fill-opacity="0.18" stroke="url(#accent)"/><rect x="585" y="128" width="50" height="10" rx="5" fill="#F4F8FF"/><rect x="118" y="390" width="120" height="18" rx="9" fill="#F4F8FF"/><rect x="248" y="394" width="210" height="10" rx="5" fill="#91A8CC" fill-opacity="0.75"/></svg>