<svg xmlns="http://www.w3.org/2000/svg" viewBox="0 0 800 480" role="img" aria-label="ROI Calculator preview interface"><defs><linearGradient id="bg" x1="0" y1="0" x2="1" y2="1"><stop offset="0%" stop-color="#0a1530"/><stop offset="100%" stop-color="#1a0f2d"/></linearGradient></defs><rect width="800" height="480" fill="url(#bg)"/><rect y="0" width="800" height="64" fill="rgba(0,0,0,.3)"/><rect x="24" y="18" width="32" height="32" rx="8" fill="#22d3ee"/><text x="36" y="40" fill="#0a1530" font-family="Inter,sans-serif" font-size="14" font-weight="900" text-anchor="middle">€</text><text x="68" y="32" fill="#fff" font-family="Inter,sans-serif" font-size="15" font-weight="800">Campaign ROI Calculator</text><text x="68" y="50" fill="#9db0d4" font-family="Inter,sans-serif" font-size="10" font-weight="600">B2B SaaS · preset încărcat</text><g font-family="Inter,sans-serif" font-size="10" font-weight="700"><rect x="420" y="22" width="90" height="22" rx="11" fill="rgba(255,255,255,.05)" stroke="rgba(255,255,255,.1)"/><text x="465" y="37" fill="#9db0d4" text-anchor="middle">E-commerce</text><rect x="516" y="22" width="80" height="22" rx="11" fill="rgba(34,211,238,.18)" stroke="#22d3ee"/><text x="556" y="37" fill="#22d3ee" text-anchor="middle">B2B SaaS</text><rect x="602" y="22" width="78" height="22" rx="11" fill="rgba(255,255,255,.05)" stroke="rgba(255,255,255,.1)"/><text x="641" y="37" fill="#9db0d4" text-anchor="middle">Lead gen</text></g><text x="24" y="92" fill="#22d3ee" font-family="Inter,sans-serif" font-size="10" font-weight="800" letter-spacing="1.5">INPUTS</text><g transform="translate(24 102)" font-family="Inter,sans-serif"><text x="0" y="14" fill="#9db0d4" font-size="10" font-weight="700">Total budget (€)</text><rect x="0" y="20" width="340" height="34" rx="8" fill="rgba(255,255,255,.04)" stroke="rgba(255,255,255,.1)"/><text x="14" y="42" fill="#fff" font-size="14" font-weight="700">12,000</text><text x="0" y="74" fill="#9db0d4" font-size="10" font-weight="700">Ad spend (€)</text><rect x="0" y="80" width="340" height="34" rx="8" fill="rgba(255,255,255,.04)" stroke="rgba(255,255,255,.1)"/><text x="14" y="102" fill="#fff" font-size="14" font-weight="700">8,500</text><text x="0" y="134" fill="#9db0d4" font-size="10" font-weight="700">Revenue (€)</text><rect x="0" y="140" width="340" height="34" rx="8" fill="rgba(74,222,128,.06)" stroke="rgba(74,222,128,.25)"/><text x="14" y="162" fill="#4ade80" font-size="14" font-weight="700">52,800</text><text x="0" y="194" fill="#9db0d4" font-size="10" font-weight="700">Leads</text><rect x="0" y="200" width="160" height="34" rx="8" fill="rgba(255,255,255,.04)" stroke="rgba(255,255,255,.1)"/><text x="14" y="222" fill="#fff" font-size="14" font-weight="700">340</text><text x="180" y="194" fill="#9db0d4" font-size="10" font-weight="700">Customers</text><rect x="180" y="200" width="160" height="34" rx="8" fill="rgba(255,255,255,.04)" stroke="rgba(255,255,255,.1)"/><text x="194" y="222" fill="#fff" font-size="14" font-weight="700">42</text></g><text x="384" y="92" fill="#4ade80" font-family="Inter,sans-serif" font-size="10" font-weight="800" letter-spacing="1.5">RESULTS · LIVE</text><g transform="translate(384 102)"><rect width="392" height="92" rx="14" fill="rgba(74,222,128,.10)" stroke="rgba(74,222,128,.35)"/><text x="18" y="22" fill="#4ade80" font-family="Inter,sans-serif" font-size="9" font-weight="800">ROI · ✓ EXCELLENT</text><text x="18" y="62" fill="#fff" font-family="Inter,sans-serif" font-size="32" font-weight="800">+340%</text><text x="18" y="82" fill="#9db0d4" font-family="Inter,sans-serif" font-size="10">Pentru fiecare 1€, recuperezi 4.40€</text><circle cx="370" cy="22" r="6" fill="#4ade80"/></g><g transform="translate(384 204)"><rect width="124" height="56" rx="10" fill="rgba(74,222,128,.08)" stroke="rgba(74,222,128,.25)"/><text x="12" y="20" fill="#4ade80" font-family="Inter,sans-serif" font-size="8" font-weight="800">ROAS</text><text x="12" y="44" fill="#fff" font-family="Inter,sans-serif" font-size="18" font-weight="800">6.2x</text><g transform="translate(134 0)"><rect width="124" height="56" rx="10" fill="rgba(245,158,11,.08)" stroke="rgba(245,158,11,.25)"/><text x="12" y="20" fill="#fbbf24" font-family="Inter,sans-serif" font-size="8" font-weight="800">CAC</text><text x="12" y="44" fill="#fff" font-family="Inter,sans-serif" font-size="18" font-weight="800">€286</text></g><g transform="translate(268 0)"><rect width="124" height="56" rx="10" fill="rgba(74,222,128,.08)" stroke="rgba(74,222,128,.25)"/><text x="12" y="20" fill="#4ade80" font-family="Inter,sans-serif" font-size="8" font-weight="800">PROFIT MARGIN</text><text x="12" y="44" fill="#fff" font-family="Inter,sans-serif" font-size="18" font-weight="800">77%</text></g></g><g transform="translate(384 270)"><text x="0" y="14" fill="#9db0d4" font-family="Inter,sans-serif" font-size="9" font-weight="800">REVENUE FORECAST · ±25%</text><rect width="392" height="90" rx="10" fill="rgba(255,255,255,.02)" stroke="rgba(255,255,255,.06)"/><g transform="translate(20 30)"><polyline points="0,52 60,48 120,44 180,42 240,40 300,38 352,36" fill="none" stroke="#f87171" stroke-width="1.5" stroke-dasharray="3 3" opacity=".6"/><polyline points="0,52 60,40 120,32 180,26 240,20 300,16 352,12" fill="none" stroke="#4ade80" stroke-width="2.5"/><polyline points="0,52 60,36 120,24 180,16 240,10 300,6 352,2" fill="none" stroke="#22d3ee" stroke-width="1.5" stroke-dasharray="3 3" opacity=".6"/></g></g><g transform="translate(24 424)"><rect width="752" height="44" rx="10" fill="rgba(74,222,128,.06)" stroke="rgba(74,222,128,.2)" stroke-dasharray="4 4"/><text x="14" y="20" fill="#4ade80" font-family="Inter,sans-serif" font-size="9" font-weight="800">AUTO-INTERPRETARE</text><text x="14" y="36" fill="#9db0d4" font-family="Inter,sans-serif" font-size="10.5">ROAS 6.2x e excelent. Profit margin 77% confirmă marja sănătoasă.</text></g></svg>