<svg xmlns="http://www.w3.org/2000/svg" width="1400" height="900" viewBox="0 0 1400 900" fill="none">
  <defs>
    <linearGradient id="bg" x1="0" y1="0" x2="1400" y2="900" gradientUnits="userSpaceOnUse">
      <stop stop-color="#0B1730"/>
      <stop offset="1" stop-color="#152B56"/>
    </linearGradient>
    <linearGradient id="accent" x1="0" y1="0" x2="1" y2="1">
      <stop stop-color="#4F8CFF"/>
      <stop offset="1" stop-color="#8B5CF6"/>
    </linearGradient>
  </defs>
  <rect width="1400" height="900" fill="url(#bg)"/>
  <rect x="70" y="70" width="1260" height="760" rx="32" fill="#0F2142" stroke="#2D467A"/>
  <rect x="110" y="130" width="260" height="640" rx="20" fill="#10274C"/>
  <rect x="410" y="130" width="420" height="300" rx="20" fill="#132D58"/>
  <rect x="860" y="130" width="430" height="300" rx="20" fill="#132D58"/>
  <rect x="410" y="460" width="880" height="310" rx="20" fill="#10274C"/>
  <rect x="130" y="170" width="220" height="52" rx="14" fill="url(#accent)"/>
  <rect x="130" y="250" width="180" height="16" rx="8" fill="#4F8CFF" fill-opacity="0.6"/>
  <rect x="130" y="280" width="180" height="16" rx="8" fill="#4F8CFF" fill-opacity="0.35"/>
  <rect x="130" y="310" width="180" height="16" rx="8" fill="#4F8CFF" fill-opacity="0.2"/>
  <text x="430" y="200" fill="#EAF1FF" font-size="44" font-family="Inter, Arial, sans-serif" font-weight="700">Live project preview</text>
  <text x="430" y="260" fill="#A9BCE4" font-size="28" font-family="Inter, Arial, sans-serif">Preview fallback when embedded view is blocked</text>
</svg>
