<svg xmlns="http://www.w3.org/2000/svg" viewBox="0 0 800 480" role="img" aria-label="Email Subject Line Tester preview">
  <defs>
    <linearGradient id="bg" x1="0" y1="0" x2="1" y2="1"><stop offset="0" stop-color="#071226"/><stop offset="1" stop-color="#140c2e"/></linearGradient>
    <linearGradient id="g" x1="0" y1="0" x2="1" y2="0"><stop offset="0" stop-color="#4f8cff"/><stop offset="1" stop-color="#8b5cf6"/></linearGradient>
  </defs>
  <rect width="800" height="480" fill="url(#bg)"/>
  <circle cx="80" cy="40" r="160" fill="#4f8cff" opacity=".14"/>
  <circle cx="720" cy="420" r="190" fill="#8b5cf6" opacity=".13"/>
  <rect x="38" y="34" width="724" height="412" rx="28" fill="rgba(10,22,46,.84)" stroke="rgba(255,255,255,.14)"/>
  <rect x="64" y="62" width="44" height="44" rx="14" fill="url(#g)"/>
  <text x="86" y="90" text-anchor="middle" fill="#fff" font-family="Inter,Arial" font-size="15" font-weight="900">ES</text>
  <text x="124" y="78" fill="#4f8cff" font-family="Inter,Arial" font-size="10" font-weight="900" letter-spacing="1.6">MARKETING-TECH · MICRO-TOOL</text>
  <text x="124" y="104" fill="#fff" font-family="Inter,Arial" font-size="24" font-weight="900">Email Subject Line Tester</text>
  <rect x="64" y="138" width="330" height="166" rx="18" fill="rgba(255,255,255,.045)" stroke="rgba(255,255,255,.12)"/>
  <text x="82" y="164" fill="#9db0d4" font-family="Inter,Arial" font-size="10" font-weight="900" letter-spacing="1">SUBIECT EMAIL</text>
  <text x="82" y="196" fill="#fff" font-family="Inter,Arial" font-size="18" font-weight="800">Ultima șansă: crește</text>
  <text x="82" y="222" fill="#fff" font-family="Inter,Arial" font-size="18" font-weight="800">conversiile cu un audit</text>
  <text x="82" y="248" fill="#fff" font-family="Inter,Arial" font-size="18" font-weight="800">gratuit azi 🚀</text>
  <rect x="64" y="324" width="100" height="32" rx="16" fill="rgba(79,140,255,.18)" stroke="rgba(79,140,255,.35)"/>
  <text x="114" y="345" fill="#4f8cff" text-anchor="middle" font-family="Inter,Arial" font-size="11" font-weight="800">audit</text>
  <rect x="174" y="324" width="104" height="32" rx="16" fill="rgba(74,222,128,.12)" stroke="rgba(74,222,128,.3)"/>
  <text x="226" y="345" fill="#4ade80" text-anchor="middle" font-family="Inter,Arial" font-size="11" font-weight="800">gratuit</text>
  <rect x="288" y="324" width="70" height="32" rx="16" fill="rgba(74,222,128,.12)" stroke="rgba(74,222,128,.3)"/>
  <text x="323" y="345" fill="#4ade80" text-anchor="middle" font-family="Inter,Arial" font-size="11" font-weight="800">azi</text>
  <g transform="translate(464 132)">
    <circle cx="78" cy="78" r="72" fill="none" stroke="rgba(255,255,255,.1)" stroke-width="14"/>
    <path d="M78 6 A72 72 0 1 1 21 122" fill="none" stroke="#4ade80" stroke-width="14" stroke-linecap="round"/>
    <text x="78" y="86" text-anchor="middle" fill="#fff" font-family="Inter,Arial" font-size="42" font-weight="900">84</text>
    <text x="78" y="108" text-anchor="middle" fill="#9db0d4" font-family="Inter,Arial" font-size="11" font-weight="800">/100</text>
  </g>
  <text x="626" y="178" fill="#fff" font-family="Inter,Arial" font-size="20" font-weight="900">Subiect puternic</text>
  <text x="626" y="204" fill="#9db0d4" font-family="Inter,Arial" font-size="12">Lungime optimă, impact bun,</text>
  <text x="626" y="222" fill="#9db0d4" font-family="Inter,Arial" font-size="12">fără risc major de spam.</text>
  <g font-family="Inter,Arial" font-size="11" font-weight="900">
    <rect x="464" y="294" width="122" height="72" rx="16" fill="rgba(255,255,255,.045)" stroke="rgba(255,255,255,.1)"/>
    <text x="484" y="326" fill="#fff" font-size="20">58</text><text x="484" y="348" fill="#9db0d4">CARACTERE</text>
    <rect x="598" y="294" width="122" height="72" rx="16" fill="rgba(255,255,255,.045)" stroke="rgba(255,255,255,.1)"/>
    <text x="618" y="326" fill="#fff" font-size="20">9</text><text x="618" y="348" fill="#9db0d4">CUVINTE</text>
  </g>
  <rect x="464" y="386" width="256" height="38" rx="12" fill="rgba(74,222,128,.08)" stroke="rgba(74,222,128,.25)" stroke-dasharray="4 4"/>
  <text x="480" y="410" fill="#4ade80" font-family="Inter,Arial" font-size="12" font-weight="900">Raport copyable · RO/EN · zero backend</text>
</svg>